# xmcd
#
# Track frame offsets:
#	150
#	22502
#	41678
#	59894
#	82804
#	109351
#	131586
#	155015
#	167099
#	193657
#	211414
#	221212
#
# Disc length: 3322 seconds
#
# Revision: 1
# Processed by: cddbd v1.5.2PL0 Copyright (c) Steve Scherf et al.
# Submitted via: audiograbber 1.83.01
#
DISCID=ac0cf80c
DTITLE=Jaimeo Brown Transcendence - Work Songs
DYEAR=2016
DGENRE=Blues
TTITLE0=Hidden Angel
TTITLE1=Mississippi
TTITLE2=Lazarus
TTITLE3=Safflower
TTITLE4=Be So Glad
TTITLE5=Happy Serving
TTITLE6=2113
TTITLE7=Moment Of Rest
TTITLE8=For Mama Lucy
TTITLE9=Stonemason
TTITLE10=Paterson
TTITLE11=The Valley
EXTD=
EXTT0=
EXTT1=
EXTT2=
EXTT3=
EXTT4=
EXTT5=
EXTT6=
EXTT7=
EXTT8=
EXTT9=
EXTT10=
EXTT11=
PLAYORDER=
